<svg preserveAspectRatio="none" width="100%" height="100%" overflow="visible" style="display: block;" viewBox="0 0 17.3841 15.9354" fill="none" xmlns="http://www.w3.org/2000/svg">
<path id="Vector" d="M7.24337 2.17301H16.6598M7.24337 2.17301C7.24337 2.55722 7.09074 2.9257 6.81906 3.19738C6.54739 3.46906 6.17891 3.62169 5.7947 3.62169C5.41048 3.62169 5.04201 3.46906 4.77033 3.19738C4.49865 2.9257 4.34602 2.55722 4.34602 2.17301M7.24337 2.17301C7.24337 1.7888 7.09074 1.42032 6.81906 1.14864C6.54739 0.876965 6.17891 0.724337 5.7947 0.724337C5.41048 0.724337 5.04201 0.876965 4.77033 1.14864C4.49865 1.42032 4.34602 1.7888 4.34602 2.17301M4.34602 2.17301H0.724337M7.24337 13.7624H16.6598M7.24337 13.7624C7.24337 14.1466 7.09074 14.5151 6.81906 14.7868C6.54739 15.0585 6.17891 15.2111 5.7947 15.2111C5.41048 15.2111 5.04201 15.0585 4.77033 14.7868C4.49865 14.5151 4.34602 14.1466 4.34602 13.7624M7.24337 13.7624C7.24337 13.3782 7.09074 13.0097 6.81906 12.738C6.54739 12.4664 6.17891 12.3137 5.7947 12.3137C5.41048 12.3137 5.04201 12.4664 4.77033 12.738C4.49865 13.0097 4.34602 13.3782 4.34602 13.7624M4.34602 13.7624H0.724337M13.0381 7.96771H16.6598M13.0381 7.96771C13.0381 8.35192 12.8854 8.7204 12.6138 8.99208C12.3421 9.26376 11.9736 9.41638 11.5894 9.41638C11.2052 9.41638 10.8367 9.26376 10.565 8.99208C10.2933 8.7204 10.1407 8.35192 10.1407 7.96771M13.0381 7.96771C13.0381 7.5835 12.8854 7.21502 12.6138 6.94334C12.3421 6.67166 11.9736 6.51903 11.5894 6.51903C11.2052 6.51903 10.8367 6.67166 10.565 6.94334C10.2933 7.21502 10.1407 7.5835 10.1407 7.96771M10.1407 7.96771H0.724337" stroke="var(--stroke-0, #F3F3F3)" stroke-opacity="0.47" stroke-width="1.44867" stroke-linecap="round" stroke-linejoin="round"/>
</svg>
