<svg preserveAspectRatio="none" width="100%" height="100%" overflow="visible" style="display: block;" viewBox="0 0 15.5518 14.9128" fill="none" xmlns="http://www.w3.org/2000/svg">
<g id="Frame 2609662">
<path id="Vector" d="M6.34087 10.384C6.15511 9.92604 5.8159 9.54692 5.38134 9.31157C4.94678 9.07622 4.44392 8.99929 3.95887 9.09395C3.47383 9.18861 3.03678 9.44897 2.7226 9.83044C2.40842 10.2119 2.23664 10.6908 2.2367 11.1849C2.2367 11.4037 2.19177 11.6202 2.10469 11.8209C2.01761 12.0216 1.89023 12.2022 1.73046 12.3517C1.57068 12.5012 1.38192 12.6162 1.17586 12.6897C0.969801 12.7632 0.75084 12.7936 0.532548 12.779C0.883637 13.389 1.42626 13.8659 2.07617 14.1358C2.72609 14.4058 3.44694 14.4536 4.12682 14.2719C4.8067 14.0902 5.40758 13.6891 5.83617 13.1309C6.26476 12.5727 6.49709 11.8887 6.49708 11.1849C6.49708 10.9016 6.4417 10.6311 6.34087 10.384ZM6.34087 10.384C7.18515 10.0963 7.99261 9.71024 8.74657 9.23369M5.16571 9.21594C5.45344 8.36987 5.84002 7.56072 6.31744 6.80527M8.74586 9.23369C10.0924 8.38293 11.2449 7.25847 12.1286 5.93331L14.8808 1.805C14.9862 1.64777 15.0338 1.45881 15.0154 1.27039C14.997 1.08197 14.9138 0.905791 14.7799 0.771927C14.646 0.638063 14.4699 0.554822 14.2814 0.53642C14.093 0.518018 13.9041 0.565597 13.7468 0.671031L9.61853 3.42395C8.2932 4.30737 7.1685 5.45965 6.31744 6.80598C7.39808 7.28916 8.26268 8.15376 8.74586 9.2344" stroke="var(--stroke-0, white)" stroke-width="1.0651" stroke-linecap="round" stroke-linejoin="round"/>
</g>
</svg>
