<svg preserveAspectRatio="none" width="100%" height="100%" overflow="visible" style="display: block;" viewBox="0 0 16.1028 15.4411" fill="none" xmlns="http://www.w3.org/2000/svg">
<g id="Frame 2609662">
<path id="Vector" d="M6.56552 10.7519C6.37318 10.2777 6.02196 9.88516 5.572 9.64148C5.12205 9.39779 4.60136 9.31813 4.09913 9.41614C3.5969 9.51416 3.14437 9.78374 2.81906 10.1787C2.49375 10.5737 2.31589 11.0695 2.31595 11.5812C2.31595 11.8078 2.26942 12.0319 2.17925 12.2397C2.08909 12.4475 1.9572 12.6346 1.79177 12.7893C1.62633 12.9441 1.43088 13.0632 1.21752 13.1393C1.00416 13.2154 0.777441 13.2469 0.551416 13.2318C0.914944 13.8633 1.47679 14.3572 2.14973 14.6367C2.82267 14.9162 3.56906 14.9657 4.27303 14.7775C4.977 14.5894 5.59916 14.1741 6.04294 13.5962C6.48671 13.0182 6.72727 12.3099 6.72727 11.5812C6.72727 11.2879 6.66993 11.0078 6.56552 10.7519ZM6.56552 10.7519C7.43971 10.454 8.27578 10.0543 9.05645 9.56084M5.34873 9.54246C5.64665 8.66641 6.04693 7.82859 6.54126 7.04638M9.05572 9.56084C10.45 8.67994 11.6433 7.51563 12.5583 6.14353L15.408 1.86895C15.5172 1.70615 15.5665 1.51049 15.5474 1.3154C15.5284 1.12031 15.4422 0.937882 15.3036 0.799276C15.165 0.660669 14.9825 0.574479 14.7874 0.555425C14.5923 0.536372 14.3967 0.585636 14.2339 0.694805L9.9593 3.54526C8.58703 4.45997 7.42247 5.65308 6.54126 7.04712C7.66019 7.54741 8.55542 8.44264 9.05572 9.56157" stroke="var(--stroke-0, white)" stroke-width="1.10283" stroke-linecap="round" stroke-linejoin="round"/>
</g>
</svg>
