<svg preserveAspectRatio="none" width="100%" height="100%" overflow="visible" style="display: block;" viewBox="0 0 17.3844 19.0922" fill="none" xmlns="http://www.w3.org/2000/svg">
<g id="Group 1000011176">
<path id="Vector" d="M11.9411 3.11989C13.6072 3.86438 14.9674 5.15802 15.7944 6.78468C16.6214 8.41135 16.8652 10.2725 16.4851 12.0574C16.105 13.8422 15.124 15.4425 13.7059 16.591C12.2878 17.7395 10.5186 18.3667 8.69376 18.3677C7.13267 18.3678 5.60593 17.9094 4.3031 17.0494C3.00028 16.1894 1.97875 14.9656 1.36536 13.5301C0.751966 12.0946 0.573731 10.5105 0.852782 8.97453C1.13183 7.43859 1.85588 6.01843 2.93501 4.8904C3.6782 5.9292 4.6592 6.77506 5.79604 7.35733C5.81595 6.081 6.11722 4.82479 6.67838 3.67827C7.23953 2.53175 8.04675 1.52316 9.04245 0.724435C9.80238 1.74365 10.7962 2.56523 11.9402 3.11989H11.9411Z" stroke="var(--stroke-0, white)" stroke-opacity="0.42" stroke-width="1.44886" stroke-linecap="round" stroke-linejoin="round"/>
<path id="Vector_2" d="M8.69438 15.4698C9.61459 15.4713 10.5009 15.1225 11.1733 14.4943C11.8457 13.866 12.2537 13.0054 12.3146 12.0872C12.3754 11.169 12.0845 10.2621 11.501 9.55057C10.9174 8.83907 10.0849 8.37636 9.1725 8.25641C8.17507 9.14898 7.51796 10.3598 7.31313 11.6825C6.569 11.5001 5.86862 11.1715 5.25284 10.7156C5.07382 11.2597 5.0264 11.8386 5.11447 12.4046C5.20254 12.9706 5.42359 13.5076 5.75948 13.9716C6.09536 14.4356 6.53651 14.8133 7.04669 15.0738C7.55688 15.3342 8.12156 15.4699 8.69438 15.4698Z" stroke="var(--stroke-0, white)" stroke-opacity="0.42" stroke-width="1.44886" stroke-linecap="round" stroke-linejoin="round"/>
</g>
</svg>
