<svg preserveAspectRatio="none" width="100%" height="100%" overflow="visible" style="display: block;" viewBox="0 0 18.0003 19.7686" fill="none" xmlns="http://www.w3.org/2000/svg">
<g id="Group 1000011176">
<path id="Vector" d="M12.3642 3.23042C14.0893 4.0013 15.4976 5.34076 16.354 7.02506C17.2103 8.70936 17.4627 10.6365 17.0692 12.4845C16.6756 14.3326 15.6598 15.9896 14.1915 17.1788C12.7232 18.368 10.8913 19.0174 9.00178 19.0185C7.38538 19.0186 5.80455 18.5439 4.45556 17.6534C3.10657 16.763 2.04885 15.4958 1.41373 14.0095C0.778608 12.5231 0.594058 10.8829 0.882995 9.2925C1.17193 7.70213 1.92163 6.23166 3.039 5.06366C3.80852 6.13927 4.82427 7.0151 6.00139 7.61799C6.022 6.29645 6.33395 4.99573 6.91499 3.80859C7.49602 2.62145 8.33184 1.57713 9.36282 0.750101C10.1497 1.80543 11.1787 2.65611 12.3632 3.23042H12.3642Z" stroke="var(--stroke-0, white)" stroke-opacity="0.42" stroke-width="1.5002" stroke-linecap="round" stroke-linejoin="round"/>
<path id="Vector_2" d="M9.00241 16.0179C9.95523 16.0195 10.8729 15.6583 11.5691 15.0078C12.2653 14.3573 12.6879 13.4662 12.7509 12.5155C12.8139 11.5647 12.5127 10.6257 11.9084 9.88894C11.3042 9.15223 10.4422 8.67313 9.49748 8.54893C8.46471 9.47312 7.78432 10.7268 7.57223 12.0964C6.80173 11.9076 6.07654 11.5673 5.43895 11.0953C5.25358 11.6587 5.20448 12.258 5.29567 12.844C5.38686 13.4301 5.61574 13.9862 5.96353 14.4666C6.31132 14.9471 6.76809 15.3382 7.29635 15.6078C7.82462 15.8775 8.4093 16.018 9.00241 16.0179Z" stroke="var(--stroke-0, white)" stroke-opacity="0.42" stroke-width="1.5002" stroke-linecap="round" stroke-linejoin="round"/>
</g>
</svg>
