<svg preserveAspectRatio="none" width="100%" height="100%" overflow="visible" style="display: block;" viewBox="0 0 23.1788 23.1788" fill="none" xmlns="http://www.w3.org/2000/svg">
<g id="Frame">
<path id="Vector" d="M2.17299 20.2815H21.0058M3.62167 2.89737V20.2815M13.7624 2.89737V20.2815M19.5571 7.24339V20.2815M6.51902 6.51905H7.24335M6.51902 9.4164H7.24335M6.51902 12.3138H7.24335M10.1407 6.51905H10.865M10.1407 9.4164H10.865M10.1407 12.3138H10.865M6.51902 20.2815V17.0219C6.51902 16.4222 7.00577 15.9354 7.60552 15.9354H9.77853C10.3783 15.9354 10.865 16.4222 10.865 17.0219V20.2815M2.89733 2.89737H14.4867M13.7624 7.24339H20.2814M16.6597 10.8651H16.6675V10.8728H16.6597V10.8651ZM16.6597 13.7624H16.6675V13.7702H16.6597V13.7624ZM16.6597 16.6598H16.6675V16.6675H16.6597V16.6598Z" stroke="var(--stroke-0, white)" stroke-width="1.44867" stroke-linecap="round" stroke-linejoin="round"/>
</g>
</svg>
