<svg preserveAspectRatio="none" width="100%" height="100%" overflow="visible" style="display: block;" viewBox="0 0 23.1788 24.1446" fill="none" xmlns="http://www.w3.org/2000/svg">
<g id="Frame">
<path id="Vector" d="M10.3822 6.27764H19.7986M10.3822 6.27764C10.3822 6.66186 10.2296 7.03033 9.9579 7.30201C9.68622 7.57369 9.31774 7.72632 8.93353 7.72632C8.54932 7.72632 8.18084 7.57369 7.90916 7.30201C7.63749 7.03033 7.48486 6.66186 7.48486 6.27764M10.3822 6.27764C10.3822 5.89343 10.2296 5.52495 9.9579 5.25328C9.68622 4.9816 9.31774 4.82897 8.93353 4.82897C8.54932 4.82897 8.18084 4.9816 7.90916 5.25328C7.63749 5.52495 7.48486 5.89343 7.48486 6.27764M7.48486 6.27764H3.86317M10.3822 17.867H19.7986M10.3822 17.867C10.3822 18.2513 10.2296 18.6197 9.9579 18.8914C9.68622 19.1631 9.31774 19.3157 8.93353 19.3157C8.54932 19.3157 8.18084 19.1631 7.90916 18.8914C7.63749 18.6197 7.48486 18.2513 7.48486 17.867M10.3822 17.867C10.3822 17.4828 10.2296 17.1144 9.9579 16.8427C9.68622 16.571 9.31774 16.4184 8.93353 16.4184C8.54932 16.4184 8.18084 16.571 7.90916 16.8427C7.63749 17.1144 7.48486 17.4828 7.48486 17.867M7.48486 17.867H3.86317M16.1769 12.0723H19.7986M16.1769 12.0723C16.1769 12.4566 16.0243 12.825 15.7526 13.0967C15.4809 13.3684 15.1124 13.521 14.7282 13.521C14.344 13.521 13.9755 13.3684 13.7039 13.0967C13.4322 12.825 13.2796 12.4566 13.2796 12.0723M16.1769 12.0723C16.1769 11.6881 16.0243 11.3197 15.7526 11.048C15.4809 10.7763 15.1124 10.6237 14.7282 10.6237C14.344 10.6237 13.9755 10.7763 13.7039 11.048C13.4322 11.3197 13.2796 11.6881 13.2796 12.0723M13.2796 12.0723H3.86317" stroke="var(--stroke-0, #F3F3F3)" stroke-opacity="0.47" stroke-width="1.44867" stroke-linecap="round" stroke-linejoin="round"/>
</g>
</svg>
