<svg preserveAspectRatio="none" width="100%" height="100%" overflow="visible" style="display: block;" viewBox="0 0 17.4545 17.4545" fill="none" xmlns="http://www.w3.org/2000/svg">
<g id="Frame 2609662">
<path id="Vector" d="M0.727273 2.90909C0.727273 2.33044 0.957142 1.77548 1.36631 1.36631C1.77548 0.957142 2.33044 0.727273 2.90909 0.727273H5.09091C5.66956 0.727273 6.22452 0.957142 6.63369 1.36631C7.04286 1.77548 7.27273 2.33044 7.27273 2.90909V5.09091C7.27273 5.66956 7.04286 6.22452 6.63369 6.63369C6.22452 7.04286 5.66956 7.27273 5.09091 7.27273H2.90909C2.33044 7.27273 1.77548 7.04286 1.36631 6.63369C0.957142 6.22452 0.727273 5.66956 0.727273 5.09091V2.90909ZM0.727273 12.3636C0.727273 11.785 0.957142 11.23 1.36631 10.8209C1.77548 10.4117 2.33044 10.1818 2.90909 10.1818H5.09091C5.66956 10.1818 6.22452 10.4117 6.63369 10.8209C7.04286 11.23 7.27273 11.785 7.27273 12.3636V14.5455C7.27273 15.1241 7.04286 15.6791 6.63369 16.0882C6.22452 16.4974 5.66956 16.7273 5.09091 16.7273H2.90909C2.33044 16.7273 1.77548 16.4974 1.36631 16.0882C0.957142 15.6791 0.727273 15.1241 0.727273 14.5455V12.3636ZM10.1818 2.90909C10.1818 2.33044 10.4117 1.77548 10.8209 1.36631C11.23 0.957142 11.785 0.727273 12.3636 0.727273H14.5455C15.1241 0.727273 15.6791 0.957142 16.0882 1.36631C16.4974 1.77548 16.7273 2.33044 16.7273 2.90909V5.09091C16.7273 5.66956 16.4974 6.22452 16.0882 6.63369C15.6791 7.04286 15.1241 7.27273 14.5455 7.27273H12.3636C11.785 7.27273 11.23 7.04286 10.8209 6.63369C10.4117 6.22452 10.1818 5.66956 10.1818 5.09091V2.90909ZM10.1818 12.3636C10.1818 11.785 10.4117 11.23 10.8209 10.8209C11.23 10.4117 11.785 10.1818 12.3636 10.1818H14.5455C15.1241 10.1818 15.6791 10.4117 16.0882 10.8209C16.4974 11.23 16.7273 11.785 16.7273 12.3636V14.5455C16.7273 15.1241 16.4974 15.6791 16.0882 16.0882C15.6791 16.4974 15.1241 16.7273 14.5455 16.7273H12.3636C11.785 16.7273 11.23 16.4974 10.8209 16.0882C10.4117 15.6791 10.1818 15.1241 10.1818 14.5455V12.3636Z" stroke="var(--stroke-0, white)" stroke-opacity="0.42" stroke-width="1.45455" stroke-linecap="round" stroke-linejoin="round"/>
</g>
</svg>
