<svg preserveAspectRatio="none" width="100%" height="100%" overflow="visible" style="display: block;" viewBox="0 0 16.8573 16.8573" fill="none" xmlns="http://www.w3.org/2000/svg">
<g id="Frame 2609662">
<path id="Vector" d="M0.702388 2.80955C0.702388 2.2507 0.924392 1.71473 1.31956 1.31956C1.71473 0.924392 2.2507 0.702388 2.80955 0.702388H4.91671C5.47557 0.702388 6.01153 0.924392 6.4067 1.31956C6.80187 1.71473 7.02388 2.2507 7.02388 2.80955V4.91671C7.02388 5.47557 6.80187 6.01153 6.4067 6.4067C6.01153 6.80187 5.47557 7.02388 4.91671 7.02388H2.80955C2.2507 7.02388 1.71473 6.80187 1.31956 6.4067C0.924392 6.01153 0.702388 5.47557 0.702388 4.91671V2.80955ZM0.702388 11.9406C0.702388 11.3817 0.924392 10.8458 1.31956 10.4506C1.71473 10.0554 2.2507 9.83343 2.80955 9.83343H4.91671C5.47557 9.83343 6.01153 10.0554 6.4067 10.4506C6.80187 10.8458 7.02388 11.3817 7.02388 11.9406V14.0478C7.02388 14.6066 6.80187 15.1426 6.4067 15.5377C6.01153 15.9329 5.47557 16.1549 4.91671 16.1549H2.80955C2.2507 16.1549 1.71473 15.9329 1.31956 15.5377C0.924392 15.1426 0.702388 14.6066 0.702388 14.0478V11.9406ZM9.83343 2.80955C9.83343 2.2507 10.0554 1.71473 10.4506 1.31956C10.8458 0.924392 11.3817 0.702388 11.9406 0.702388H14.0478C14.6066 0.702388 15.1426 0.924392 15.5377 1.31956C15.9329 1.71473 16.1549 2.2507 16.1549 2.80955V4.91671C16.1549 5.47557 15.9329 6.01153 15.5377 6.4067C15.1426 6.80187 14.6066 7.02388 14.0478 7.02388H11.9406C11.3817 7.02388 10.8458 6.80187 10.4506 6.4067C10.0554 6.01153 9.83343 5.47557 9.83343 4.91671V2.80955ZM9.83343 11.9406C9.83343 11.3817 10.0554 10.8458 10.4506 10.4506C10.8458 10.0554 11.3817 9.83343 11.9406 9.83343H14.0478C14.6066 9.83343 15.1426 10.0554 15.5377 10.4506C15.9329 10.8458 16.1549 11.3817 16.1549 11.9406V14.0478C16.1549 14.6066 15.9329 15.1426 15.5377 15.5377C15.1426 15.9329 14.6066 16.1549 14.0478 16.1549H11.9406C11.3817 16.1549 10.8458 15.9329 10.4506 15.5377C10.0554 15.1426 9.83343 14.6066 9.83343 14.0478V11.9406Z" stroke="var(--stroke-0, white)" stroke-opacity="0.42" stroke-width="1.40478" stroke-linecap="round" stroke-linejoin="round"/>
</g>
</svg>
