<svg preserveAspectRatio="none" width="100%" height="100%" overflow="visible" style="display: block;" viewBox="0 0 14.4867 14.4867" fill="none" xmlns="http://www.w3.org/2000/svg">
<g id="Frame">
<path id="Vector" d="M7.24341 3.62176V7.24344H9.95968M12.6759 7.24344C12.6759 7.95685 12.5354 8.66328 12.2624 9.32238C11.9894 9.98149 11.5892 10.5804 11.0848 11.0848C10.5803 11.5893 9.98146 11.9894 9.32235 12.2624C8.66325 12.5355 7.95682 12.676 7.24341 12.676C6.53 12.676 5.82358 12.5355 5.16447 12.2624C4.50537 11.9894 3.90649 11.5893 3.40204 11.0848C2.89758 10.5804 2.49742 9.98149 2.22441 9.32238C1.9514 8.66328 1.81089 7.95685 1.81089 7.24344C1.81089 5.80265 2.38324 4.42086 3.40204 3.40207C4.42083 2.38327 5.80262 1.81092 7.24341 1.81092C8.68421 1.81092 10.066 2.38327 11.0848 3.40207C12.1036 4.42086 12.6759 5.80265 12.6759 7.24344Z" stroke="var(--stroke-0, #9A9A9A)" stroke-width="0.905421" stroke-linecap="round" stroke-linejoin="round"/>
</g>
</svg>
