<svg preserveAspectRatio="none" width="100%" height="100%" overflow="visible" style="display: block;" viewBox="0 0 16.4183 16.4183" fill="none" xmlns="http://www.w3.org/2000/svg">
<g id="Frame">
<path id="Vector" d="M2.80345 13.6149C3.04168 13.8532 3.32451 14.0422 3.6358 14.1711C3.94709 14.3001 4.28073 14.3665 4.61768 14.3665M2.80345 13.6149C3.28455 14.096 3.9373 14.3665 4.61768 14.3665M2.80345 13.6149C2.32235 13.1338 2.05232 12.481 2.05232 11.8006V2.82188C2.05232 2.39706 2.3971 2.05227 2.82192 2.05227H6.41343C6.83825 2.05227 7.18304 2.39706 7.18304 2.82188V5.60752M4.61768 14.3665C4.95462 14.3665 5.28827 14.3001 5.59955 14.1711C5.91084 14.0422 6.19367 13.8532 6.4319 13.6149M4.61768 14.3665C5.29805 14.3665 5.9508 14.096 6.4319 13.6149M4.61768 14.3665L13.5964 14.366C14.0213 14.366 14.366 14.0212 14.366 13.5964V10.0049C14.366 9.58007 14.0213 9.23528 13.5964 9.23528H10.8108M6.4319 13.6149L10.8108 9.23528M6.4319 13.6149C6.913 13.1338 7.18304 12.481 7.18304 11.8006V5.60752M10.8108 9.23528L12.7803 7.26508C13.0813 6.96545 13.0813 6.47837 12.7803 6.17737L10.2409 3.63732C9.93994 3.337 9.45287 3.337 9.15323 3.63732L7.18304 5.60752M4.61768 11.8006H4.62315V11.8061H4.61768V11.8006Z" stroke="var(--stroke-0, #9A9A9A)" stroke-width="1.02614" stroke-linecap="round" stroke-linejoin="round"/>
</g>
</svg>
