<svg width="42" height="54" viewBox="0 0 42 54" fill="none" xmlns="http://www.w3.org/2000/svg">
<g clip-path="url(#clip0_owl)">
<!-- Right ear -->
<path d="M40.8208 0.858398H35.3975C32.7175 0.858398 30.5449 3.03514 30.5449 5.7203V12.8701C30.5449 15.5554 32.7175 17.7321 35.3975 17.7321H35.9684C38.6483 17.7321 40.8208 15.5554 40.8208 12.8701V0.858398Z" fill="white"/>
<!-- Left ear -->
<path d="M0 0.858369H5.42338C8.10333 0.858369 10.2759 3.03511 10.2759 5.72027V12.0121C10.2759 14.6973 8.10333 16.874 5.42338 16.874H4.85249C2.17254 16.874 0 14.6973 0 12.0121V0.858369Z" fill="white"/>
<!-- Top bridge -->
<path d="M10.2578 9.78268C10.2578 7.85536 11.8172 6.29297 13.7408 6.29297H27.2927C29.2163 6.29297 30.7757 7.85537 30.7757 9.78268V16.5718H10.2578V9.78268Z" fill="white"/>
<!-- Bottom chin -->
<path d="M10.2578 43.6152H30.7757V48.9914C30.7757 50.9186 29.2163 52.481 27.2927 52.481H13.8544C11.8681 52.481 10.2578 50.8677 10.2578 48.8775L10.2578 43.6152Z" fill="white"/>
<!-- Right cheek -->
<path d="M37.5553 16.5723C39.4788 16.5723 41.0381 18.1347 41.0381 20.0619V40.1259C41.0381 42.0533 39.4788 43.6157 37.5553 43.6157H30.7793V16.5723H37.5553Z" fill="white"/>
<!-- Left cheek -->
<path d="M10.2589 16.5723L10.2589 43.6157H3.48295C1.55937 43.6157 0 42.0533 0 40.1259V20.0619C0 18.1347 1.55937 16.5723 3.48295 16.5723H10.2589Z" fill="white"/>
<!-- Left eye -->
<g>
<mask id="mask0_owl" style="mask-type:luminance" maskUnits="userSpaceOnUse" x="4" y="9" width="16" height="17">
<path d="M19.8763 13.5067C19.8763 11.4379 18.2025 9.76081 16.1377 9.76081H9.90668C7.15365 9.76081 4.92188 11.9969 4.92188 14.7553V25.9929H14.8915C17.6444 25.9929 19.8763 23.7567 19.8763 20.9984V13.5067Z" fill="white"/>
</mask>
<g mask="url(#mask0_owl)">
<path d="M19.8763 13.5067C19.8763 11.4379 18.2025 9.76079 16.1377 9.76079H9.90668C7.15365 9.76079 4.92188 11.9969 4.92188 14.7553V25.9929H14.8915C17.6444 25.9929 19.8763 23.7567 19.8763 20.9984V13.5067Z" fill="white" stroke="black" stroke-width="10.2858"/>
</g>
</g>
<!-- Right eye -->
<g>
<mask id="mask1_owl" style="mask-type:luminance" maskUnits="userSpaceOnUse" x="22" y="9" width="16" height="17">
<path d="M22.3711 13.5067C22.3711 11.4378 24.045 9.76074 26.1097 9.76074H32.3407C35.0937 9.76074 37.3255 11.9968 37.3255 14.7553V25.9928H27.3559C24.6029 25.9928 22.3711 23.7567 22.3711 20.9983V13.5067Z" fill="white"/>
</mask>
<g mask="url(#mask1_owl)">
<path d="M22.3711 13.5067C22.3711 11.4378 24.045 9.76074 26.1097 9.76074H32.3407C35.0937 9.76074 37.3255 11.9968 37.3255 14.7553V25.9928H27.3559C24.6029 25.9928 22.3711 23.7567 22.3711 20.9983V13.5067Z" fill="white" stroke="black" stroke-width="10.2858"/>
</g>
</g>
<!-- Nose/beak -->
<path d="M22.4636 26.3122C21.8044 27.4561 20.1564 27.4561 19.4972 26.3122L17.3961 22.6658C16.7369 21.5218 17.5608 20.0918 18.8792 20.0918H23.0816C24.4 20.0918 25.224 21.5218 24.5649 22.6658L22.4636 26.3122Z" fill="white"/>
</g>
<defs>
<clipPath id="clip0_owl">
<rect width="42" height="54" fill="white"/>
</clipPath>
</defs>
</svg>