<svg preserveAspectRatio="none" width="100%" height="100%" overflow="visible" style="display: block;" viewBox="0 0 175.714 53.6905" fill="none" xmlns="http://www.w3.org/2000/svg">
<g id="svg-393525973_3974" clip-path="url(#clip0_13_1777)">
<path id="Vector" d="M40.8208 0.858398H35.3975C32.7175 0.858398 30.5449 3.03514 30.5449 5.7203V12.8701C30.5449 15.5554 32.7175 17.7321 35.3975 17.7321H35.9684C38.6483 17.7321 40.8208 15.5554 40.8208 12.8701V0.858398Z" fill="var(--fill-0, white)"/>
<path id="Vector_2" d="M0 0.858369H5.42338C8.10333 0.858369 10.2759 3.03511 10.2759 5.72027V12.0121C10.2759 14.6973 8.10333 16.874 5.42338 16.874H4.85249C2.17254 16.874 0 14.6973 0 12.0121V0.858369Z" fill="var(--fill-0, white)"/>
<path id="Vector_3" d="M62.5936 31.1517H55.7193C53.7957 31.1517 52.2363 29.5893 52.2363 27.662V0.0195529H59.1107C61.0343 0.0195529 62.5936 1.58195 62.5936 3.50926V31.1517ZM72.9509 31.1517V3.50926C72.9509 1.58195 74.5103 0.0195529 76.4339 0.0195529H79.8253C81.749 0.0195529 83.3083 1.58195 83.3083 3.50926V31.1517H72.9509ZM93.6656 31.1517V3.50926C93.6656 1.58195 95.225 0.0195529 97.1485 0.0195529H104.023V27.662C104.023 29.5893 102.464 31.1517 100.54 31.1517H93.6656ZM72.9509 48.4168C72.9509 50.3441 71.3916 51.9065 69.468 51.9065H62.5936V31.1517H72.9509V48.4168ZM93.6656 48.4168C93.6656 50.3441 92.1063 51.9065 90.1826 51.9065H83.3083V31.1517H93.6656V48.4168Z" fill="var(--fill-0, white)"/>
<path id="Vector_4" d="M141.968 41.5291C143.892 41.5291 145.451 43.0915 145.451 45.0188V48.4168C145.451 50.3441 143.892 51.9065 141.968 51.9065H117.862C115.938 51.9065 114.379 50.3441 114.379 48.4168V0.0195312H121.253C123.177 0.0195312 124.736 1.58192 124.736 3.50924V38.0394C124.736 39.9667 126.295 41.5291 128.22 41.5291H141.968Z" fill="var(--fill-0, white)"/>
<path id="Vector_5" d="M154.996 20.7547H148.122C146.198 20.7547 144.639 19.1923 144.639 17.2651V0H151.513C153.437 0 154.996 1.56239 154.996 3.48971V20.7547ZM165.353 20.7547V0H172.227C174.151 0 175.71 1.56239 175.71 3.48971V17.2651C175.71 19.1923 174.151 20.7547 172.227 20.7547H165.353ZM165.353 48.3972C165.353 50.3246 163.794 51.887 161.87 51.887H154.996V20.7547H165.353V48.3972Z" fill="var(--fill-0, white)"/>
<path id="Vector_6" d="M10.2578 9.78268C10.2578 7.85536 11.8172 6.29297 13.7408 6.29297H27.2927C29.2163 6.29297 30.7757 7.85537 30.7757 9.78268V16.5718H10.2578V9.78268Z" fill="var(--fill-0, white)"/>
<path id="Vector_7" d="M10.2578 43.6152H30.7757V48.9914C30.7757 50.9186 29.2163 52.481 27.2927 52.481H13.8544C11.8681 52.481 10.2578 50.8677 10.2578 48.8775L10.2578 43.6152Z" fill="var(--fill-0, white)"/>
<path id="Vector_8" d="M37.5553 16.5723C39.4788 16.5723 41.0381 18.1347 41.0381 20.0619V40.1259C41.0381 42.0533 39.4788 43.6157 37.5553 43.6157H30.7793V16.5723H37.5553Z" fill="var(--fill-0, white)"/>
<path id="Vector_9" d="M10.2589 16.5723L10.2589 43.6157H3.48295C1.55937 43.6157 0 42.0533 0 40.1259V20.0619C0 18.1347 1.55937 16.5723 3.48295 16.5723H10.2589Z" fill="var(--fill-0, white)"/>
<g id="Mask group">
<mask id="mask0_13_1777" style="mask-type:luminance" maskUnits="userSpaceOnUse" x="4" y="9" width="16" height="17">
<g id="Group">
<path id="Vector_10" d="M19.8763 13.5067C19.8763 11.4379 18.2025 9.76081 16.1377 9.76081H9.90668C7.15365 9.76081 4.92188 11.9969 4.92188 14.7553V25.9929H14.8915C17.6444 25.9929 19.8763 23.7567 19.8763 20.9984V13.5067Z" fill="var(--fill-0, white)"/>
</g>
</mask>
<g mask="url(#mask0_13_1777)">
<path id="Vector_11" d="M19.8763 13.5067C19.8763 11.4379 18.2025 9.76079 16.1377 9.76079H9.90668C7.15365 9.76079 4.92188 11.9969 4.92188 14.7553V25.9929H14.8915C17.6444 25.9929 19.8763 23.7567 19.8763 20.9984V13.5067Z" fill="var(--fill-0, white)" stroke="var(--stroke-1, black)" stroke-width="10.2858"/>
</g>
</g>
<g id="Mask group_2">
<mask id="mask1_13_1777" style="mask-type:luminance" maskUnits="userSpaceOnUse" x="22" y="9" width="16" height="17">
<g id="Group_2">
<path id="Vector_12" d="M22.3711 13.5067C22.3711 11.4378 24.045 9.76074 26.1097 9.76074H32.3407C35.0937 9.76074 37.3255 11.9968 37.3255 14.7553V25.9928H27.3559C24.6029 25.9928 22.3711 23.7567 22.3711 20.9983V13.5067Z" fill="var(--fill-0, white)"/>
</g>
</mask>
<g mask="url(#mask1_13_1777)">
<path id="Vector_13" d="M22.3711 13.5067C22.3711 11.4378 24.045 9.76074 26.1097 9.76074H32.3407C35.0937 9.76074 37.3255 11.9968 37.3255 14.7553V25.9928H27.3559C24.6029 25.9928 22.3711 23.7567 22.3711 20.9983V13.5067Z" fill="var(--fill-0, white)" stroke="var(--stroke-1, black)" stroke-width="10.2858"/>
</g>
</g>
<path id="Vector_14" d="M22.4636 26.3122C21.8044 27.4561 20.1564 27.4561 19.4972 26.3122L17.3961 22.6658C16.7369 21.5218 17.5608 20.0918 18.8792 20.0918H23.0816C24.4 20.0918 25.224 21.5218 24.5649 22.6658L22.4636 26.3122Z" fill="var(--fill-0, white)"/>
</g>
<defs>
<clipPath id="clip0_13_1777">
<rect width="175.714" height="53.6905" fill="white"/>
</clipPath>
</defs>
</svg>
