<svg preserveAspectRatio="none" width="100%" height="100%" overflow="visible" style="display: block;" viewBox="0 0 61 18.6389" fill="none" xmlns="http://www.w3.org/2000/svg">
<g id="svg-393525973_3974" clip-path="url(#clip0_13_1655)">
<path id="Vector" d="M14.1708 0.297852H12.2881C11.3578 0.297852 10.6035 1.05352 10.6035 1.98568V4.46776C10.6035 5.39997 11.3578 6.15562 12.2881 6.15562H12.4863C13.4167 6.15562 14.1708 5.39997 14.1708 4.46776V0.297852Z" fill="var(--fill-0, white)"/>
<path id="Vector_2" d="M0 0.297852H1.88275C2.81311 0.297852 3.56731 1.05352 3.56731 1.98568V4.16994C3.56731 5.10209 2.81311 5.85775 1.88275 5.85775H1.68456C0.754207 5.85775 0 5.10209 0 4.16993V0.297852Z" fill="var(--fill-0, white)"/>
<path id="Vector_3" d="M21.7303 10.8145H19.3439C18.6761 10.8145 18.1348 10.2721 18.1348 9.60305V0.00683594H20.5213C21.189 0.00683594 21.7303 0.549227 21.7303 1.2183V10.8145ZM25.3259 10.8145V1.2183C25.3259 0.549227 25.8673 0.00683594 26.5351 0.00683594H27.7124C28.3802 0.00683594 28.9216 0.549227 28.9216 1.2183V10.8145H25.3259ZM32.5171 10.8145V1.2183C32.5171 0.549227 33.0585 0.00683594 33.7262 0.00683594H36.1127V9.60305C36.1127 10.2721 35.5714 10.8145 34.9036 10.8145H32.5171ZM25.3259 16.8081C25.3259 17.4772 24.7846 18.0196 24.1168 18.0196H21.7303V10.8145H25.3259V16.8081ZM32.5171 16.8081C32.5171 17.4772 31.9758 18.0196 31.308 18.0196H28.9216V10.8145H32.5171V16.8081Z" fill="var(--fill-0, white)"/>
<path id="Vector_4" d="M49.2848 14.4171C49.9528 14.4171 50.494 14.9595 50.494 15.6285V16.8082C50.494 17.4773 49.9528 18.0197 49.2848 18.0197H40.9164C40.2486 18.0197 39.7072 17.4773 39.7072 16.8082V0.00686345H42.0937C42.7615 0.00686345 43.3029 0.549255 43.3029 1.21833V13.2056C43.3029 13.8747 43.8441 14.4171 44.5121 14.4171H49.2848Z" fill="var(--fill-0, white)"/>
<path id="Vector_5" d="M53.8084 7.2051H51.4221C50.7541 7.2051 50.2129 6.66271 50.2129 5.99366V0H52.5992C53.2672 0 53.8084 0.542392 53.8084 1.21147V7.2051ZM57.404 7.2051V0H59.7903C60.4583 0 60.9995 0.542392 60.9995 1.21147V5.99366C60.9995 6.66271 60.4583 7.2051 59.7903 7.2051H57.404ZM57.404 16.8013C57.404 17.4704 56.8628 18.0128 56.1948 18.0128H53.8084V7.2051H57.404V16.8013Z" fill="var(--fill-0, white)"/>
<path id="Vector_6" d="M3.56055 3.39604C3.56055 2.72696 4.10189 2.18457 4.76967 2.18457H9.47428C10.1421 2.18457 10.6834 2.72697 10.6834 3.39604V5.75291H3.56055V3.39604Z" fill="var(--fill-0, white)"/>
<path id="Vector_7" d="M3.56055 15.1416H10.6834V17.008C10.6834 17.677 10.1421 18.2194 9.47428 18.2194H4.80912C4.11955 18.2194 3.56055 17.6593 3.56055 16.9684L3.56055 15.1416Z" fill="var(--fill-0, white)"/>
<path id="Vector_8" d="M13.0379 5.75293C13.7056 5.75293 14.247 6.29532 14.247 6.96437V13.9297C14.247 14.5988 13.7056 15.1412 13.0379 15.1412H10.6855V5.75293H13.0379Z" fill="var(--fill-0, white)"/>
<path id="Vector_9" d="M3.56143 5.75293L3.56143 15.1412H1.20912C0.541342 15.1412 0 14.5988 0 13.9297V6.96437C0 6.29532 0.541342 5.75293 1.20912 5.75293H3.56143Z" fill="var(--fill-0, white)"/>
<g id="Mask group">
<mask id="mask0_13_1655" style="mask-type:luminance" maskUnits="userSpaceOnUse" x="1" y="3" width="6" height="7">
<g id="Group">
<path id="Vector_10" d="M6.90047 4.68908C6.90047 3.97088 6.31941 3.38867 5.6026 3.38867H3.43948C2.48375 3.38867 1.70898 4.16494 1.70898 5.12254V9.02371H5.16997C6.12568 9.02371 6.90047 8.24742 6.90047 7.28986V4.68908Z" fill="var(--fill-0, white)"/>
</g>
</mask>
<g mask="url(#mask0_13_1655)">
<path id="Vector_11" d="M6.90047 4.68908C6.90047 3.97088 6.31941 3.38867 5.6026 3.38867H3.43948C2.48375 3.38867 1.70898 4.16494 1.70898 5.12254V9.02371H5.16997C6.12568 9.02371 6.90047 8.24742 6.90047 7.28986V4.68908Z" fill="var(--fill-0, white)" stroke="var(--stroke-1, black)" stroke-width="3.57077"/>
</g>
</g>
<g id="Mask group_2">
<mask id="mask1_13_1655" style="mask-type:luminance" maskUnits="userSpaceOnUse" x="7" y="3" width="6" height="7">
<g id="Group_2">
<path id="Vector_12" d="M7.76562 4.68908C7.76562 3.97088 8.34673 3.38867 9.0635 3.38867H11.2266C12.1823 3.38867 12.9571 4.16494 12.9571 5.12254V9.02371H9.49612C8.54041 9.02371 7.76562 8.24742 7.76562 7.28986V4.68908Z" fill="var(--fill-0, white)"/>
</g>
</mask>
<g mask="url(#mask1_13_1655)">
<path id="Vector_13" d="M7.76562 4.68908C7.76562 3.97088 8.34673 3.38867 9.0635 3.38867H11.2266C12.1823 3.38867 12.9571 4.16494 12.9571 5.12254V9.02371H9.49612C8.54041 9.02371 7.76562 8.24742 7.76562 7.28986V4.68908Z" fill="var(--fill-0, white)" stroke="var(--stroke-1, black)" stroke-width="3.57077"/>
</g>
</g>
<path id="Vector_14" d="M7.79876 9.13501C7.5699 9.53215 6.9978 9.53215 6.76894 9.13501L6.03954 7.86917C5.81068 7.47203 6.09673 6.97559 6.5544 6.97559H8.0133C8.47097 6.97559 8.75702 7.47203 8.52821 7.86917L7.79876 9.13501Z" fill="var(--fill-0, white)"/>
</g>
<defs>
<clipPath id="clip0_13_1655">
<rect width="61" height="18.6389" fill="white"/>
</clipPath>
</defs>
</svg>
