<svg preserveAspectRatio="none" width="100%" height="100%" overflow="visible" style="display: block;" viewBox="0 0 17 17" fill="none" xmlns="http://www.w3.org/2000/svg">
<g id="Frame">
<path id="Vector" d="M2.90275 14.0972C3.14941 14.344 3.44227 14.5397 3.76459 14.6732C4.0869 14.8068 4.43237 14.8755 4.78125 14.8755M2.90275 14.0972C3.40089 14.5954 4.07677 14.8755 4.78125 14.8755M2.90275 14.0972C2.40461 13.5991 2.125 12.9232 2.125 12.2187V2.92187C2.125 2.482 2.482 2.125 2.92187 2.125H6.64062C7.0805 2.125 7.4375 2.482 7.4375 2.92187V5.80621M4.78125 14.8755C5.13013 14.8755 5.4756 14.8068 5.79791 14.6732C6.12023 14.5397 6.41309 14.344 6.65975 14.0972M4.78125 14.8755C5.48573 14.8755 6.16161 14.5954 6.65975 14.0972M4.78125 14.8755L14.0781 14.875C14.518 14.875 14.875 14.518 14.875 14.0781V10.3594C14.875 9.9195 14.518 9.5625 14.0781 9.5625H11.1938M6.65975 14.0972L11.1938 9.5625M6.65975 14.0972C7.15789 13.5991 7.4375 12.9232 7.4375 12.2187V5.80621M11.1938 9.5625L13.2331 7.5225C13.5447 7.21225 13.5447 6.70792 13.2331 6.39625L10.6037 3.76621C10.2921 3.45525 9.78775 3.45525 9.4775 3.76621L7.4375 5.80621M4.78125 12.2187H4.78692V12.2244H4.78125V12.2187Z" stroke="var(--stroke-0, #9A9A9A)" stroke-width="1.0625" stroke-linecap="round" stroke-linejoin="round"/>
</g>
</svg>
