<svg preserveAspectRatio="none" width="100%" height="100%" overflow="visible" style="display: block;" viewBox="0 0 49 14.9613" fill="none" xmlns="http://www.w3.org/2000/svg">
<path id="Vector" d="M8.69043 12.1025V13.9717C8.69027 14.487 8.27219 14.9043 7.75684 14.9043H3.90527C3.39007 14.9041 2.97282 14.4869 2.97266 13.9717V12.1025H8.69043ZM19.7363 8.89258V13.7334C19.7363 14.2487 19.3189 14.6668 18.8037 14.667H17.8398C17.3244 14.667 16.9063 14.2488 16.9062 13.7334V8.89258H19.7363ZM25.624 8.89258V13.7334C25.624 14.2488 25.2058 14.667 24.6904 14.667H23.7266C23.2113 14.6669 22.794 14.2487 22.7939 13.7334V8.89258H25.624ZM32.5576 0.0615234H33.5215C34.0369 0.0615234 34.4551 0.47966 34.4551 0.995117V10.79C34.4553 11.3678 34.9241 11.8359 35.502 11.8359H39.4092C39.9246 11.836 40.3428 12.2541 40.3428 12.7695V13.7334C40.3427 14.2488 39.9245 14.6669 39.4092 14.667H32.5576C32.0423 14.6669 31.6241 14.2487 31.624 13.7334V0.995117C31.624 0.479728 32.0423 0.0616338 32.5576 0.0615234ZM46 5.94434V13.7285C46 14.244 45.5819 14.6621 45.0664 14.6621H44.1025C43.5871 14.6621 43.169 14.244 43.1689 13.7285V5.94434H46ZM0.990234 3.35547H2.85937V11.9893H0.990234C0.474777 11.9893 0.0566406 11.5711 0.0566406 11.0557V4.28809C0.0567754 3.77274 0.474861 3.35547 0.990234 3.35547ZM10.6729 3.35547C11.1882 3.35547 11.6063 3.77274 11.6064 4.28809V11.0557C11.6064 11.5711 11.1883 11.9893 10.6729 11.9893H8.80371V3.35547H10.6729ZM14.8955 0.0615234H15.8594C16.3748 0.0615234 16.793 0.47966 16.793 0.995117V8.7793H14.8955C14.3802 8.77916 13.9629 8.36108 13.9629 7.8457V0.995117C13.9629 0.479745 14.3802 0.0616599 14.8955 0.0615234ZM26.6709 0.0615234H27.6348C28.15 0.0617508 28.5674 0.479801 28.5674 0.995117V7.8457C28.5674 8.36102 28.15 8.77907 27.6348 8.7793H25.7373V0.995117C25.7373 0.47966 26.1554 0.0615234 26.6709 0.0615234ZM20.7832 0.0615234H21.7471C22.2625 0.0615643 22.6807 0.479686 22.6807 0.995117V8.7793H19.8496V0.995117C19.8496 0.47966 20.2677 0.0615234 20.7832 0.0615234ZM41.1592 0.0566406H42.123C42.6384 0.056805 43.0557 0.474879 43.0557 0.990234V5.83105H41.1592C40.6437 5.83105 40.2256 5.41292 40.2256 4.89746V0.990234C40.2256 0.474778 40.6437 0.0566406 41.1592 0.0566406ZM47.0459 0.0566406H48.0098C48.5252 0.0566406 48.9434 0.474778 48.9434 0.990234V4.89746C48.9434 5.41292 48.5252 5.83105 48.0098 5.83105H46.1133V0.990234C46.1133 0.474886 46.5306 0.056816 47.0459 0.0566406ZM3.90527 0.439453H7.75684C8.27229 0.439453 8.69043 0.85759 8.69043 1.37305V3.24219H2.97266V1.37305C2.97266 0.857702 3.38997 0.439635 3.90527 0.439453Z" fill="var(--fill-0, white)" stroke="var(--stroke-0, white)" stroke-width="0.113164"/>
</svg>
